<?xml version="1.0" standalone="no"?><!DOCTYPE svg PUBLIC "-//W3C//DTD SVG 1.1//EN" "http://www.w3.org/Graphics/SVG/1.1/DTD/svg11.dtd"><svg t="1722910443379" class="icon" viewBox="0 0 1024 1024" version="1.1" xmlns="http://www.w3.org/2000/svg" p-id="14708" xmlns:xlink="http://www.w3.org/1999/xlink" width="16" height="16"><path d="M460.548682 548.942924c97.523624 31.012512 177.688042 82.309938 222.353862 178.468231 9.752362 20.479961 19.504725 40.667351 18.724536 64.170545-6.436559 22.527957 2.925709 44.470772 3.120756 66.803682 0 32.767938-12.483024 53.345422-47.786576 53.54047-175.542523 1.23855-350.792475 1.23855-525.749856 0-32.865461 0-45.153438-17.554252-44.470772-49.639525 0.877713-40.959922 16.871587-78.896612 20.577484-119.173868 14.53102-51.882568 51.687521-87.771261 86.405931-126.780711 51.785044-70.314533 183.149365-103.667612 266.824635-67.388824z" fill="#3B5868" p-id="14709"></path><path d="M460.548682 548.942924a369.419487 369.419487 0 0 0-266.824635 68.266537c-55.490942-92.062301-112.932356-182.174129-164.522353-275.699285-48.761812-87.771261-2.438091-178.663279 93.330108-195.047247 66.901206-19.504725 113.517498 8.777126 147.260672 63.877973 21.650244 35.498599 50.809808 68.266537 51.492473 113.02988l139.263735 225.572142z" fill="#E4AA50" p-id="14710"></path><path d="M1012.727439 1005.938625c-12.092929 16.67654-29.842229 9.752362-44.860867 9.752362-303.552031 0.526628-607.113815 0.526628-910.675598 0-22.040339 0-55.198371 9.752362-49.444478-31.402607 4.095992-29.257087-24.868524-79.189182 41.350017-74.215477 21.747768 1.657902 27.794233-9.069697 27.98928-29.257087 0-17.164158-6.241512-35.888694 7.411795-51.297427 16.67654 21.552721 0 47.884099 9.752363 70.50958 2.633138 4.895686 6.72913 8.855145 11.702835 11.312741 165.009971 7.606843 330.117466 1.462854 495.127437 3.120756 29.257087 0 58.514174 3.21828 86.991073-3.413327a24.380906 24.380906 0 0 0 10.727598-12.3855c7.996937-22.235386-6.631606-48.761812 12.678072-68.851679 1.121522 1.170283 2.165024 2.408834 3.120756 3.705898 14.335973 22.430433-9.752362 59.48941 15.89635 70.899675s57.05132 2.925709 85.918313 5.071228c65.145781 4.973705 131.169274-11.605311 195.632389 8.679602-92.159824 9.752362-183.929554 1.560378-264.581591 5.071229 12.873118 5.071228 39.00945-1.170283 64.755686-0.585142 50.127143 1.267807 100.449332 2.633138 150.381428 0 35.986217-2.14552 51.492473 8.094461 46.03115 45.446009a53.403936 53.403936 0 0 0 4.095992 37.839166z" fill="#A8AEB5" p-id="14711"></path><path d="M613.465724 197.467784l-263.801403 105.423037a47.494005 47.494005 0 0 1-40.959922-28.379374 500.29619 500.29619 0 0 0-114.882828-146.285436c144.334963-42.032682 288.377355-85.528218 433.394984-125.122809 47.981623-13.165689 79.38423 17.359205 101.229521 57.636461 16.774063 27.891756 2.14552 52.272662-8.484555 77.23871-20.382437 46.811339-61.829977 56.076084-106.495797 59.489411z" fill="#EDC45F" p-id="14712"></path><path d="M779.645979 294.698837c20.18739 3.998469 41.642587-23.113099 58.514174-3.120756a568.904059 568.904059 0 0 1 63.487879 90.69697c8.289508 14.628544-9.752362 20.870055-21.650245 24.868524-70.50958 22.33291-141.116684 44.178202-211.431216 67.193777-19.504725 6.534083-31.012512 0-37.449071-17.846823a546.220064 546.220064 0 0 1-25.941284-77.336234c-6.924177-35.401075 30.817465-30.329847 46.811339-45.348485a206.847606 206.847606 0 0 1 127.658424-39.106973z" fill="#3B5868" p-id="14713"></path><path d="M779.655731 294.698837a533.356698 533.356698 0 0 1-126.780711 39.009449c-0.975236-48.761812-23.503193-91.672206-39.009449-136.533073 35.108505-20.479961 78.018899-27.696709 106.59332-59.586934 26.038808 50.029619 21.845292 111.469502 59.19684 157.110558z" fill="#EFEFEF" p-id="14714"></path><path d="M86.838155 908.415001l-2.340567-79.481753c3.315803-29.842229 4.388563-60.367123 22.820528-86.210884 17.554252 15.311209 3.21828 30.719941-1.755425 44.373249-9.167221 25.258619-8.191984 50.809808-9.167221 76.751092-0.780189 24.283382 7.509319 35.108505 33.450603 35.010981 175.542523-0.711922 351.085046-0.711922 526.627569 0 28.671945 0 35.498599-11.897882 35.888693-38.034213 0-23.210622-9.752362-48.761812 9.752363-69.729391a4.193516 4.193516 0 0 1 0.585141 6.631606c6.534083 37.429567 6.163493 75.736846-1.072759 113.02988-14.628544 9.752362-31.305083 6.924177-47.298958 7.021701-172.158453 0.263314-344.190125 0.390094-516.095017 0.390094-17.554252 0-35.986217 3.023232-51.39495-9.752362z" fill="#355363" p-id="14715"></path><path d="M193.831323 128.226011c45.543532 18.04187 73.630336 54.320658 96.35334 95.085533 16.383969 29.257087 30.914989 59.391887 59.489411 79.286706l-28.379375 20.675009c-15.60378-27.501662-32.182796-54.515706-46.518768-82.700033-31.792701-62.512643-78.896612-99.181525-152.234377-94.110297a142.472262 142.472262 0 0 1 71.289769-18.236918z" fill="#E8BB55" p-id="14716"></path><path d="M1012.727439 1005.938625c-1.07276-1.170283-2.925709-2.14552-3.315803-3.510851-20.089866-74.215478-20.089866-74.215478-105.032943-74.215477h-173.494526v-9.752363h281.160607c0.195047 28.964516 0.487618 58.221603 0.682665 87.478691z" fill="#A3A9B0" p-id="14717"></path><path d="M701.041938 907.732336l1.170283-109.51903c3.120756 10.727599 6.143988 21.357674 9.752363 31.987749-0.877713 25.746237-1.657902 51.39495-2.535615 77.141186-2.925709 3.998469-5.558847 3.900945-8.387031 0.390095z" fill="#3B5868" p-id="14718"></path><path d="M719.971273 137.978373c3.51085-25.746237 15.213685-50.517237 8.484555-77.23871 21.357674 28.476898 14.433496 53.930564-8.484555 77.23871z" fill="#EFEFEF" p-id="14719"></path><path d="M213.141 783.194668c-24.771-27.404138-8.87465-58.514174-9.16722-88.941545 52.077615-6.72913 104.057707-9.752362 156.037798 1.170284l-1.365331-1.560378a13.263213 13.263213 0 0 1 2.828185 15.60378c-1.462854 7.840899-1.950472 15.837836-1.462854 23.795764 2.925709 32.280319-9.752362 45.446009-43.788107 44.373249-34.035745-1.07276-69.339296-7.80189-103.082471 5.558846z" fill="#ECEDEC" p-id="14720"></path><path d="M584.208637 783.194668c-48.761812-1.755425-99.57162 18.334441-146.285436-11.020169 13.848355-78.018899 13.848355-78.018899 76.360997-78.018899 82.89508-0.292571 84.065364 1.462854 69.924439 89.039068z" fill="#F0EFEF" p-id="14721"></path><path d="M584.208637 783.194668c-5.266276-25.453666 15.018638-64.365592-12.873119-74.215477-32.670414-11.507788-72.6551-5.948941-108.933888-2.438091-21.650244 2.14552-12.970642 25.453666-14.531019 40.082209-1.07276 9.752362-1.267807 19.504725-9.752363 25.55119v-78.018899c51.687521-8.582079 104.477058-8.221241 156.037798 1.07276-5.753894 29.257087 11.507788 60.659694-9.947409 87.966308z" fill="#EBECEC" p-id="14722"></path><path d="M213.141 783.194668c23.503193-21.650244 52.175139-9.752362 78.0189-9.752362 37.741642 0 68.266537-1.170283 59.781981-52.175139-0.877713-5.071228 4.778658-11.215217 7.411795-16.871587 11.117693 25.941284 8.094461 52.175139 1.852949 78.018899a780.228 780.228 0 0 1-147.065625 0.780189z" fill="#F9F9F9" p-id="14723"></path><path d="M593.765952 695.423407l-156.037798-1.07276a242.248681 242.248681 0 0 1 156.037798 1.07276z" fill="#1E3F51" p-id="14724"></path><path d="M360.001826 695.423407l-156.037798-1.170284a243.809059 243.809059 0 0 1 156.037798 1.170284z" fill="#1D3F51" p-id="14725"></path><path d="M360.196873 782.512003c-0.585142-26.136331-1.267807-52.272662-1.852949-78.018899v-9.752363a85.138124 85.138124 0 0 1 1.852949 87.771262z" fill="#1F4153" p-id="14726"></path><path d="M421.051614 781.63429v-74.898143h3.608374v74.898143h-3.608374z" fill="#2F4E5F" p-id="14727"></path><path d="M191.393232 704.298057v75.288237h-3.900945v-75.190714l3.900945-0.097523z" fill="#2E4E5F" p-id="14728"></path><path d="M164.759531 216.777461c27.209091 34.133268 25.161095 69.144249-11.605311 90.014305-30.524894 17.359205-63.000261 9.752362-76.458522-30.719941 4.973705-58.416651 21.162626-69.339296 88.063833-59.294364z" fill="#DF6A56" p-id="14729"></path><path d="M164.759531 216.777461c-44.178202-2.340567-80.066895 7.80189-87.771262 59.294364-18.627012-22.723004-7.80189-43.885631 9.752363-57.343891a61.927501 61.927501 0 0 1 78.018899-1.950473z" fill="#D75844" p-id="14730"></path><path d="M701.041938 907.732336c2.613633 0.487618 5.295533 0.487618 7.899413 0 0.682665 3.315803 1.267807 6.631606 1.950473 9.752362-7.996937 7.606843-18.139394 5.65637-27.696709 5.65637h-572.853766a41.44754 41.44754 0 0 1-23.40567-4.486086v-9.752363l614.106259-1.170283z" fill="#72828E" p-id="14731"></path><path d="M86.935679 918.654982l624.151192-1.267807c-9.752362 14.823591-25.941284 10.630075-39.984686 10.630074h-543.206584c-14.335973-0.097524-29.744705 3.998469-40.959922-9.362267z" fill="#B0B4BA" p-id="14732"></path><path d="M681.634737 60.837187c20.284914 29.257087 6.534083 49.932095-19.504725 61.63493-30.914989 13.848355-47.689052-5.753894-57.148844-33.548126 14.921114-38.716879 43.495536-39.399544 76.653569-28.086804z" fill="#DF6E56" p-id="14733"></path><path d="M681.634737 60.837187l-5.3638 11.897882c-30.232323-23.40567-50.029619-0.682665-71.192245 16.188922 8.289508-49.151906 32.182796-58.221603 76.556045-28.086804z" fill="#D85D45" p-id="14734"></path></svg>