<?xml version="1.0" standalone="no"?><!DOCTYPE svg PUBLIC "-//W3C//DTD SVG 1.1//EN" "http://www.w3.org/Graphics/SVG/1.1/DTD/svg11.dtd"><svg t="1722910066505" class="icon" viewBox="0 0 1024 1024" version="1.1" xmlns="http://www.w3.org/2000/svg" p-id="11405" xmlns:xlink="http://www.w3.org/1999/xlink" width="16" height="16"><path d="M291.2 856v-140.8h96v-88H76.8v88h96v140.8h-96V944h310.4v-88h-96z" fill="#E5E5E5" p-id="11406"></path><path d="M76.8 627.2v88h96v140.8h-96V944h232L160 627.2H76.8z m310.4 0h561.6v88H387.2v-88z" fill="#CCCCCC" p-id="11407"></path><path d="M948.8 729.6c8 0 14.4-6.4 14.4-14.4v-88c0-8-6.4-14.4-14.4-14.4h-67.2c-8 0-14.4 6.4-14.4 14.4s6.4 14.4 14.4 14.4h52.8v60.8H704v-60.8h104c8 0 14.4-6.4 14.4-14.4s-6.4-14.4-14.4-14.4h-115.2l-166.4-91.2v-22.4c62.4-6.4 110.4-59.2 110.4-123.2 0-52.8-33.6-99.2-81.6-116.8v-24l38.4-25.6c3.2-3.2 6.4-6.4 6.4-11.2V81.6c0-8-6.4-14.4-14.4-14.4h-147.2c-8 0-14.4 6.4-14.4 14.4v118.4c0 4.8 1.6 9.6 6.4 11.2l38.4 25.6v96c0 8 6.4 14.4 14.4 14.4H512c22.4 0 30.4 16 30.4 30.4 0 11.2-6.4 22.4-16 27.2v-12.8c0-8-6.4-14.4-14.4-14.4s-14.4 6.4-14.4 14.4v12.8c-9.6-4.8-16-16-16-27.2 0-8-6.4-14.4-14.4-14.4H400c-8 0-14.4 6.4-14.4 14.4 0 64 48 116.8 110.4 123.2v22.4l-166.4 91.2H76.8c-8 0-14.4 6.4-14.4 14.4v88c0 8 6.4 14.4 14.4 14.4h81.6v112H76.8c-8 0-12.8 4.8-12.8 12.8V944c0 8 6.4 14.4 14.4 14.4H144c8 0 14.4-6.4 14.4-14.4s-6.4-12.8-14.4-12.8H91.2v-60.8h81.6c8 0 14.4-6.4 14.4-14.4v-140.8c0-8-6.4-14.4-14.4-14.4H91.2V640h281.6v60.8h-81.6c-8 0-14.4 6.4-14.4 14.4v140.8c0 8 6.4 14.4 14.4 14.4h81.6v60.8h-156.8c-8 0-14.4 6.4-14.4 14.4s6.4 14.4 14.4 14.4h731.2c8 0 14.4-6.4 14.4-14.4v-88c0-8-6.4-14.4-14.4-14.4h-81.6v-112h83.2z" p-id="11408"></path><path d="M305.6 729.6h371.2v112H305.6v-112z" fill="#808080" p-id="11409" data-spm-anchor-id="a313x.search_index.0.i0.4b923a811dRmNG" class="selected"></path><path d="M452.8 94.4h120V192l-35.2 22.4h-51.2L452.8 192V94.4z" fill="#EB6836" p-id="11410"></path><path d="M438.4 81.6v118.4l44.8 28.8V81.6h-44.8z" p-id="11411"></path><path d="M704 729.6h134.4v112H704v-112z" fill="#808080" p-id="11412"></path><path d="M704 870.4h230.4v60.8H704v-60.8z m-302.4 0h275.2v60.8H401.6v-60.8z" fill="#CCCCCC" p-id="11413"></path><path d="M416 390.4h40c4.8 20.8 22.4 36.8 43.2 43.2v40c-43.2-8-76.8-41.6-83.2-83.2z m155.2-14.4c0-28.8-19.2-57.6-57.6-57.6h-16v-75.2h32v27.2c0 6.4 4.8 11.2 9.6 12.8 41.6 11.2 70.4 49.6 70.4 92.8 0 48-36.8 89.6-83.2 96V432c25.6-4.8 44.8-28.8 44.8-56z" fill="#F7D04A" p-id="11414"></path><path d="M390.4 614.4l123.2-67.2 123.2 67.2H390.4z" fill="#FFFFFF" p-id="11415"></path><path d="M401.6 641.6h275.2v60.8H401.6v-60.8z" fill="#CCCCCC" p-id="11416"></path></svg>